<svg height="512" viewBox="0 0 512 512" width="512" xmlns="http://www.w3.org/2000/svg"><g><g><g><path d="m184 152h312v209h-312z" fill="#57565c"/><path d="m184 361h312v63h-312z" fill="#ff5023"/><path d="m16 361h168v63h-168z" fill="#ff5023"/><path d="m184 200v161h-168v-73l56-88z" fill="#e0e0e2"/><path d="m16 288v24h112v-80h-71" fill="#83d8f4"/><path d="m32 344h24a0 0 0 0 1 0 0v32a0 0 0 0 1 0 0h-24a16 16 0 0 1 -16-16 16 16 0 0 1 16-16z" fill="#cca400" transform="matrix(-1 0 0 -1 72 720)"/><circle cx="416" cy="424" fill="#2d2d30" r="40"/><circle cx="416" cy="424" fill="#cca400" r="16"/><circle cx="104" cy="424" fill="#2d2d30" r="40"/><circle cx="104" cy="424" fill="#cca400" r="16"/></g><circle cx="344" cy="160" fill="#cca400" r="112"/><circle cx="344" cy="160" fill="#bdfdff" r="88"/></g><g><path d="m416 399a24 24 0 1 0 24 24 24.027 24.027 0 0 0 -24-24zm0 32a8 8 0 1 1 8-8 8.009 8.009 0 0 1 -8 8z"/><path d="m104 399a24 24 0 1 0 24 24 24.027 24.027 0 0 0 -24-24zm0 32a8 8 0 1 1 8-8 8.009 8.009 0 0 1 -8 8z"/><path d="m344 256a96 96 0 1 0 -96-96 96.108 96.108 0 0 0 96 96zm0-176a80 80 0 1 1 -80 80 80.091 80.091 0 0 1 80-80z"/><path d="m304 200h23a8 8 0 0 0 0-16h-15v-3.719l20.437-13.625a8 8 0 0 0 3.563-6.656v-24a8 8 0 0 0 -8-8h-24a8 8 0 0 0 0 16h16v11.719l-20.438 13.625a8 8 0 0 0 -3.562 6.656v16a8 8 0 0 0 8 8z"/><path d="m360 176h16v16a8 8 0 0 0 16 0v-16a8 8 0 0 0 0-16v-24a8 8 0 0 0 -16 0v24h-8v-24a8 8 0 0 0 -16 0v32a8 8 0 0 0 8 8z"/><path d="m496 152h-32.27a120 120 0 0 0 -239.46 0h-40.27a8 8 0 0 0 -8 8v31h-104a8 8 0 0 0 -6.75 3.71l-56 88a1.091 1.091 0 0 0 -.06.11 5.861 5.861 0 0 0 -.42.78.8.8 0 0 0 -.08.16 7.452 7.452 0 0 0 -.36.97c-.01.04-.02.09-.03.13a7.878 7.878 0 0 0 -.19.87c-.01.08-.03.16-.04.25a8.448 8.448 0 0 0 -.07 1.02v136a8 8 0 0 0 8 8h40.68a47.99 47.99 0 0 0 94.64 0h217.36a47.99 47.99 0 0 0 94.64 0h32.68a8 8 0 0 0 8-8v-263a8 8 0 0 0 -8-8zm-472 137.33 32.07-50.39a7.032 7.032 0 0 0 .93.06h63v64h-96zm0 61.67h16a8 8 0 0 1 0 16h-16zm80 104a32 32 0 1 1 32-32 32.036 32.036 0 0 1 -32 32zm72-40h-24.68a47.99 47.99 0 0 0 -94.64 0h-32.68v-32h16a24.027 24.027 0 0 0 22.31-15.18 7.882 7.882 0 0 0 1.69.18h112zm0-63h-112a8.448 8.448 0 0 0 -1.02.07 24.045 24.045 0 0 0 -22.98-17.07h-16v-16h104a8 8 0 0 0 8-8v-80a8 8 0 0 0 -8-8h-61.79l10.18-16h99.61zm168-296a104 104 0 1 1 -104 104 104.112 104.112 0 0 1 104-104zm104 367v.01a32 32 0 1 1 0-.02zm40-8h-24.68a47.99 47.99 0 0 0 -94.64 0h-176.68v-47h296zm0-63h-296v-184h32.27a120 120 0 0 0 239.46 0h24.27z"/></g></g></svg>