<svg id="Capa_1" enable-background="new 0 0 512.68 512.68" height="512" viewBox="0 0 512.68 512.68" width="512" xmlns="http://www.w3.org/2000/svg"><g><g><g><path d="m245.851 45.299-236.697 409.971c-4.662 8.074 1.165 18.168 10.489 18.168h473.394c9.324 0 15.151-10.093 10.489-18.168l-236.697-409.971c-4.662-8.075-16.316-8.075-20.978 0z" fill="#655e67"/></g></g><g><g><path d="m503.526 455.27-236.697-409.971c-4.662-8.075-16.316-8.075-20.978 0l-4.511 7.813 232.186 402.158c4.662 8.074-1.165 18.167-10.489 18.167h30c9.324 0 15.151-10.093 10.489-18.167z" fill="#544f56"/></g></g><g><g><path d="m65.982 434.572 190.358-329.711 190.358 329.711z" fill="#f5de46"/></g></g><g><g><path d="m256.34 104.862-15 25.98 175.358 303.73h30z" fill="#f3d332"/></g></g><g><g><path d="m261.29 328.879h-13.095c-5.846 0-10.584-4.739-10.584-10.584v-101.029c0-5.846 4.739-10.584 10.584-10.584h13.095c5.846 0 10.584 4.739 10.584 10.584v101.029c0 5.845-4.738 10.584-10.584 10.584z" fill="#655e67"/></g></g><g><g><ellipse cx="256.566" cy="371.325" fill="#655e67" rx="18.503" ry="18.503" transform="matrix(.159 -.987 .987 .159 -150.881 565.478)"/></g></g><g><path d="m261.29 199.182h-13.095c-9.972 0-18.084 8.113-18.084 18.084v101.029c0 9.972 8.113 18.085 18.084 18.085h13.095c9.972 0 18.084-8.113 18.084-18.085v-101.029c0-9.972-8.112-18.084-18.084-18.084zm3.084 119.113c0 1.701-1.384 3.085-3.084 3.085h-13.095c-1.701 0-3.084-1.384-3.084-3.085v-101.029c0-1.701 1.384-3.084 3.084-3.084h13.095c1.701 0 3.084 1.384 3.084 3.084z"/><path d="m256.566 345.322c-14.338 0-26.003 11.665-26.003 26.003s11.665 26.003 26.003 26.003 26.003-11.665 26.003-26.003-11.665-26.003-26.003-26.003zm0 37.006c-6.067 0-11.003-4.936-11.003-11.003s4.936-11.003 11.003-11.003 11.003 4.936 11.003 11.003-4.936 11.003-11.003 11.003z"/><path d="m510.021 451.52-236.697-409.971c-3.545-6.14-9.894-9.806-16.984-9.806s-13.439 3.666-16.984 9.806l-88.917 154.009c-2.071 3.587-.842 8.174 2.745 10.245 3.586 2.071 8.173.842 10.245-2.745l88.917-154.009c1.202-2.081 3.193-2.306 3.994-2.306.8 0 2.792.225 3.994 2.306l236.697 409.971c1.202 2.081.4 3.918.001 4.611-.4.693-1.591 2.306-3.994 2.306h-473.395c-2.403 0-3.594-1.612-3.994-2.306-.4-.693-1.202-2.531 0-4.612l132.502-229.501c2.071-3.587.842-8.174-2.745-10.245-3.588-2.072-8.174-.842-10.245 2.745l-132.502 229.501c-3.545 6.14-3.545 13.472 0 19.612s9.894 9.806 16.984 9.806h473.394c7.09 0 13.439-3.666 16.984-9.806s3.545-13.471 0-19.611z"/><path d="m201.223 434.572c0 4.142 3.358 7.5 7.5 7.5h237.975c2.68 0 5.155-1.43 6.495-3.75s1.34-5.18 0-7.5l-190.358-329.711c-1.34-2.32-3.815-3.75-6.495-3.75s-5.155 1.43-6.495 3.75l-190.358 329.711c-1.34 2.32-1.34 5.18 0 7.5s3.815 3.75 6.495 3.75h112.741c4.142 0 7.5-3.358 7.5-7.5s-3.358-7.5-7.5-7.5h-99.751l177.368-307.211 177.368 307.211h-224.985c-4.142 0-7.5 3.358-7.5 7.5z"/></g></g></svg>